<svg xmlns="http://www.w3.org/2000/svg" xmlns:xlink="http://www.w3.org/1999/xlink" width="332.647" height="86.17" viewBox="0 0 332.647 86.17">
  <defs>
    <clipPath id="clip-path">
      <rect id="Rectangle_41" data-name="Rectangle 41" width="332.647" height="86.17" fill="none"/>
    </clipPath>
  </defs>
  <g id="sanit-logo" transform="translate(-30.818 -383.043)">
    <g id="Group_27" data-name="Group 27" transform="translate(30.818 383.043)">
      <g id="Group_26" data-name="Group 26" transform="translate(0 0)" clip-path="url(#clip-path)">
        <path id="Path_20" data-name="Path 20" d="M27.15,52.561H38.7a3.124,3.124,0,0,1,2.387.684,2.451,2.451,0,0,0,3.23.245,2.329,2.329,0,0,0,1.15-2.754,3.811,3.811,0,0,0-2.611-2.4c-.582-.207-1.014.318-1.346.707a3.393,3.393,0,0,1-2.859,1.109q-12.348-.048-24.7-.02c-1.509,0-2.754-.368-3.411-1.852a4.825,4.825,0,0,1,.832-4.666A2.235,2.235,0,0,1,13.131,43c5.239-.007,10.477,0,15.716-.03a3.213,3.213,0,0,1,2.091,1.023c1.343,1.093,2.525,1.05,3.536-.059a2.775,2.775,0,0,0,.059-3.893c-1.139-1.134-2.348-1.154-3.636.075a3.447,3.447,0,0,1-2.58,1.018c-4.7-.036-9.409-.075-14.113,0-2.618.043-3.761-1.516-3.816-3.934s1.146-4.555,3.827-4.514c7.054.107,14.113.025,21.168.014a2.579,2.579,0,0,1,2.139.814c1.179,1.289,2.245,1.3,3.311.229a3.334,3.334,0,0,0,.18-4.284,2.781,2.781,0,0,0-3.488.016,2.674,2.674,0,0,1-2.162.78c-6.095,0-12.188.009-18.282-.011-2.6-.009-3.595-.918-3.625-3.189-.038-2.7,1.057-3.927,3.7-3.952,4.436-.043,8.873,0,13.311-.023a3.013,3.013,0,0,1,2.1.918c.714.611,1.625,1.439,2.713.673,1-.705,2.279-1.245,1.918-2.945a3.035,3.035,0,0,0-2.534-2.346,2.246,2.246,0,0,0-1.929.53,5.455,5.455,0,0,1-4.171.9,26.01,26.01,0,0,0-5.593-.139c-2.566.173-3.42-1.264-3.638-3.28a3.747,3.747,0,0,1,3.629-3.907c3.688-.073,7.377-.036,11.066-.043,2.191-.005,4.384,0,6.575-.011,1.386-.005,2.695-.025,3.889,1.027.954.841,2.814.282,3.552-.782.805-1.161.582-2.125-.768-3.3a2.124,2.124,0,0,0-3.23.087,3.608,3.608,0,0,1-2.721,1.12c-1.87-.041-3.743.021-5.613-.021a3.9,3.9,0,0,1-3.468-5.836,2.422,2.422,0,0,1,1.25-.952A43.185,43.185,0,0,1,47.09.494,39.311,39.311,0,0,1,54.715.03,43,43,0,0,1,67.9,2.793a22.655,22.655,0,0,1,5.732,2.766c.379.277.932.425.884,1.023-.045.571-.613.495-.973.671-3.732,1.813-7.6,3.405-11.007,5.793-5.966,4.182-11.186,9.2-14.257,15.9-2.111,4.6-2.1,9.959,3.357,14.129a22.61,22.61,0,0,0,9.623,4.412c3.329.632,6.693,1.13,9.966,1.98a13.554,13.554,0,0,1,6.461,3.673c1.125,1.171,1.034,1.716-.495,2.284-4.027,1.495-8.057,2.995-12.148,4.295-4.9,1.557-9.848,2.975-14.809,4.321-2.4.652-4.875,1.013-7.32,1.484-3.118.6-6.22,1.33-9.363,1.732a75.032,75.032,0,0,1-15.134.809c-1.216-.091-1.979-1.677-1.639-3.157a3.483,3.483,0,0,1,3.068-2.65c3.1-.066,6.2-.027,9.3-.048A3.037,3.037,0,0,1,31,63.032a2.5,2.5,0,0,0,3.121.064,2.35,2.35,0,0,0,1.055-2.925A3.408,3.408,0,0,0,32.5,58.109a1.464,1.464,0,0,0-1.261.6,3.727,3.727,0,0,1-3.057,1.059c-4.277-.043-8.554.007-12.83-.05-1.861-.025-2.964-1.059-3.461-2.973a4.053,4.053,0,0,1,1.546-3.761,3.367,3.367,0,0,1,2-.405c3.9-.009,7.805,0,11.707,0Z" transform="translate(8.06 0)" fill="#0c5adb"/>
        <path id="Path_21" data-name="Path 21" d="M78.03,39.436c.3,1.243-.791,2.455-2.4,3.516-2.984,1.964-6.03,3.823-9.121,5.614-1.1.636-1.8.537-2.661-.6a18.8,18.8,0,0,0-10.1-6.638c-3.314-.973-6.8-1.1-10.118-1.991-2.584-.693-5.238-1.216-7.463-3.021-2.855-2.318-3.484-5.4-2.543-8.759,1.184-4.225,4.007-7.423,6.807-10.648,3.155-3.636,7.071-6.293,11.084-8.809a30.022,30.022,0,0,1,6.516-3.3,3.59,3.59,0,0,1,3.534.975c2.6,2.111,5.3,4.114,7.188,7a60.169,60.169,0,0,1,6.836,12.954A54.3,54.3,0,0,1,78.03,39.436" transform="translate(26.102 3.651)" fill="#72728e"/>
        <path id="Path_22" data-name="Path 22" d="M16.51,37.412c-.205.877-.813,1-1.286,1.327-2.352,1.607-4.548,3.4-5.666,6.132C8.6,47.21,9.023,48.512,11,50.04A12.659,12.659,0,0,0,17.33,52.5c3.421.384,6.848,1.118,10.334.754,3.795-.4,7.613-.5,11.395-1.111,1.877-.3,3.793-.382,5.68-.734a13.025,13.025,0,0,0,3.266-.611c1.963-.9,4.155-.816,6.229-1.261,3.941-.846,7.852-1.791,11.727-2.88q4.891-1.377,9.711-3.009a75.8,75.8,0,0,0,7.28-2.793c3.339-1.523,6.893-2.511,10.173-4.179A70.175,70.175,0,0,0,100.848,32c1.4-.954,2.8-1.943,4.152-2.991a12.361,12.361,0,0,0,4.441-6.264c.095-.309.127-.661.5-.75.425-.1.7.152.918.488a5.141,5.141,0,0,1,.629,4.13c-.759,3.514-3.439,5.45-5.979,7.446C100.618,37.9,94.95,40.4,89.377,43.053a134.561,134.561,0,0,1-15.241,6.1c-4.07,1.357-8.2,2.55-12.329,3.721-4.295,1.22-8.738,1.659-13.021,2.929-2.818.836-5.864.861-8.748,1.513a89.22,89.22,0,0,1-12.914,1.645c-5.338.413-10.743.7-16.114-.3-2.3-.429-4.625-.645-6.746-1.718-5.545-2.8-5.114-6.209-1.925-10.186A28.815,28.815,0,0,1,16.51,37.412" transform="translate(0 17.263)" fill="#92abd6"/>
        <path id="Path_23" data-name="Path 23" d="M32.27,56.174a5.5,5.5,0,0,1-2.763-.809,59.741,59.741,0,0,1-8.871-4.741c-.339-.227-.827-.4-.645-.961.155-.486.593-.58,1.03-.607,3.266-.2,6.457-.948,9.673-1.455,4.063-.643,8.036-1.854,12.039-2.854,3.652-.911,7.314-1.786,10.927-2.832,3-.87,5.966-1.9,8.9-2.984,2.639-.975,5.216-2.121,7.823-3.189a1.051,1.051,0,0,1,1.073-.007c.438.345.023.684-.127.98a26.038,26.038,0,0,1-5.1,7.061A37.244,37.244,0,0,1,54.409,51.47a66.041,66.041,0,0,1-12.677,3.546c-3.161.636-6.412-.011-9.463,1.157" transform="translate(15.677 27.962)" fill="#0c5adb"/>
        <path id="Path_24" data-name="Path 24" d="M31.375,60.609c1.62-.146,3.193-.552,4.77-.737A41.561,41.561,0,0,0,55.02,53.187c4.664-3.179,8.911-6.939,11.318-12.284a7.145,7.145,0,0,0,.955-2.68c-.012-1.9,1.343-2.537,2.588-3.282,1.779-1.064,3.762-1.757,5.438-3.016.346-.259.786-.441,1.168-.075.366.348.207.773.073,1.195a44.414,44.414,0,0,1-4.048,8.329c-4.254,7.48-10.855,12.3-18.343,16.014-7,3.479-14.518,4.343-22.243,3.745-.2-.016-.425-.041-.55-.523" transform="translate(24.652 24.863)" fill="#72728e"/>
        <path id="Path_25" data-name="Path 25" d="M130.124,36.67c0,3.954.086,7.909-.036,11.857a3.031,3.031,0,0,0,2.545,3.375c.2.057.461.009.605.123.868.691,2.709.6,2.246,2.386-.384,1.48-1.754.723-2.638.746-3.743.1-7.489.066-11.236.032-.686-.005-1.638.386-1.916-.7-.289-1.127.4-1.632,1.364-1.939.246-.079.432-.45.663-.466,3.127-.218,3.489-2.155,3.457-4.829-.127-10.332-.091-20.668-.03-31,.016-2.657-2.275-2.539-3.718-3.446-.38-.237-.939-.141-1.3-.554a1.408,1.408,0,0,1-.462-1.3c.145-.646.657-.634,1.139-.634,3.884,0,7.77-.057,11.652.036,1.557.037,2.2,1.609,3,2.58,3.407,4.13,6.759,8.325,9.827,12.707,2.834,4.05,6.332,7.532,9.214,11.521.375.52.8.866,1.348.693.6-.189.305-.846.3-1.284,0-6.727-.1-13.455-.029-20.182.027-2.634-2.3-2.538-3.666-3.554-.363-.268-.945-.132-1.3-.561-.316-.384-.643-.721-.5-1.282.159-.614.641-.68,1.134-.68q6.865-.008,13.734,0c.521,0,.984.071,1.073.705a1.315,1.315,0,0,1-.829,1.525c-4.861.82-4.5,4.352-4.466,7.977.1,10.957.057,21.918.005,32.877,0,.848.662,2.318-.625,2.488-1.448.191-3.227.868-4.463-.638-3.83-4.671-7.934-9.129-11.161-14.273-2.75-4.38-6.459-8.014-9.52-12.157-1.18-1.6-2.434-3.139-3.677-4.689-.318-.395-.543-1.116-1.237-.807-.52.229-.359.8-.357,1.3.023,4.016.014,8.032.014,12.05h-.166" transform="translate(93.994 8.096)" fill="#72728e"/>
        <path id="Path_26" data-name="Path 26" d="M128.1,55.533c-3.052,0-6.105.007-9.157-.007-.511,0-1.289.257-1.339-.532-.039-.621-.1-1.43.691-1.816a7.647,7.647,0,0,1,1.823-.866c2.088-.37,2.475-1.464,1.771-3.334-1.091-2.905-2.1-5.839-3.077-8.786a1.577,1.577,0,0,0-1.788-1.254c-3.605.045-7.214.061-10.82-.025a2.243,2.243,0,0,0-2.33,1.639c-1.2,2.92-2.323,5.871-3.584,8.764-.682,1.564-.1,2.361,1.318,2.857,1.384.486,3.53.727,3.161,2.518-.359,1.75-2.457.748-3.752.809-3.184.15-6.38.075-9.57.029-.741-.011-1.82.459-2.07-.761a1.945,1.945,0,0,1,1.613-2.318c2.964-.312,3.568-2.554,4.52-4.709,3.873-8.768,7.852-17.488,11.739-26.246,1.452-3.27,2.8-6.586,4.114-9.913.887-2.248,2.78-1.532,4.414-1.7,1.5-.152,1.745.909,2.238,1.946,3.02,6.35,5.005,13.132,8.005,19.471,2.711,5.725,4.2,11.873,6.648,17.677a4.778,4.778,0,0,0,3.325,3.223,12.108,12.108,0,0,1,1.859.859,1.448,1.448,0,0,1,.959,1.823c-.193.836-.966.654-1.555.657-3.054.02-6.105.009-9.157.009ZM111.864,21.492c-2.279,4.2-3.241,8.666-5.468,12.63-.491.871.054,1.448,1.055,1.45,2.7,0,5.4-.016,8.1,0,1.188.007,1.468-.609,1.111-1.6-.373-1.034-.871-2.023-1.262-3.052-1.191-3.138-2.359-6.286-3.536-9.429" transform="translate(70.193 7.755)" fill="#72728e"/>
        <path id="Path_27" data-name="Path 27" d="M82.774,55.574c-4.587.436-8.829-.823-13.111-1.775-.964-.214-1.2-1-1.195-1.918.02-2.359-.011-4.718.02-7.077.009-.777-.25-1.888,1.048-1.821,1.048.054,2.4-.659,3.027.934.78,1.98,1.693,3.911,2.391,5.918C75.5,51.4,76.346,52.3,78.1,52.226c1.523-.059,3.052.03,4.577.021,6.143-.034,7.748-6.441,5.4-10.252-1.92-3.111-5.254-4.277-7.875-6.409-2.745-2.234-6.275-3.271-8.732-5.993-5.216-5.779-3.371-14.207,3.779-17.391A22.7,22.7,0,0,1,87.191,9.993a50.266,50.266,0,0,1,10.387,2.282c.9.305.689.929.7,1.489.027,2.5.032,4.995-.007,7.493-.011.693.246,1.709-.952,1.691-1.1-.016-2.434.511-3.062-1.011a38.927,38.927,0,0,1-2.3-5.732c-.43-1.834-1.523-2.346-3.063-2.78-3.238-.913-8.441.618-9.848,3.007A5.526,5.526,0,0,0,80.508,23.8c4.573,3.073,8.829,6.586,13.559,9.452A11.755,11.755,0,0,1,96.521,51.3a13.9,13.9,0,0,1-9.289,4.264c-1.521.079-3.05.012-4.457.012" transform="translate(53.797 7.757)" fill="#72728e"/>
        <path id="Path_28" data-name="Path 28" d="M189,32.232c0,5.27.168,10.548-.075,15.807-.113,2.42.927,3.505,2.941,3.763,1.266.161,2.286.888,3.507,1.023.954.107.975.813,1.02,1.527.063,1.021-.673.855-1.27.855q-11.44.005-22.884-.005c-.693,0-1.477.1-1.473-.954a1.363,1.363,0,0,1,1.177-1.45c1.705-.466,3.346-1.193,5.07-1.546,1.127-.232,1.259-.771,1.257-1.7q-.024-17.266.011-34.532c.005-1.525-.541-2.212-2.068-2.07a3.6,3.6,0,0,1-.416-.005c-7-.191-5.163.573-6.843,5.538-.354,1.041-.627,2.113-1.023,3.138-.532,1.38-1.746,1.093-2.832,1.03-1.275-.073-1.071-1.1-1.084-1.868-.041-2.913.03-5.825-.034-8.738-.032-1.373.5-1.743,1.837-1.738q17.995.064,35.991-.009c1.53-.005,2.068.441,1.989,2.03-.13,2.629.011,5.27-.018,7.9-.009.993.218,2.2-1.277,2.436-1.443.23-2.589-.086-3.132-1.641-.657-1.886-1.4-3.741-2.054-5.629-.8-2.314-1.4-2.727-3.83-2.354a4.358,4.358,0,0,1-1.405.03c-2.368-.361-3.089.33-3.086,2.729q.016,8.215,0,16.432" transform="translate(128.841 8.088)" fill="#72728e"/>
        <path id="Path_29" data-name="Path 29" d="M160.092,55.252c-3.121,0-6.243.016-9.364-.012-.632-.005-1.5.268-1.634-.782-.1-.78.362-1.216.964-1.673,1.084-.821,2.443-.841,3.621-1.409a1.775,1.775,0,0,0,1.212-1.861c-.011-11.1-.03-22.2.007-33.295.005-1.509-.966-2.063-2.046-2.507-.563-.23-1.121-.457-1.679-.7-.937-.405-2.3-.473-2.011-1.855.309-1.484,1.743-.741,2.627-.754,5.757-.075,11.516-.037,17.273-.011.7,0,1.689-.337,1.834.8.125.986-.595,1.268-1.437,1.659-3.734,1.739-4.464.837-4.395,6.116.129,9.711.059,19.425-.089,29.134-.036,2.345.943,3.42,3.018,3.884.27.061.623.039.793.205.755.736,2.607.629,2.1,2.32-.423,1.42-1.779.668-2.684.705-2.7.109-5.409.039-8.114.039" transform="translate(117.134 8.037)" fill="#72728e"/>
        <path id="Path_30" data-name="Path 30" d="M69.082,49.989V40.111h6.07v1.671H70.728v2.189h4.111v1.664H70.728v2.682H75.3v1.671Z" transform="translate(54.279 31.516)" fill="#92abd6"/>
        <path id="Path_31" data-name="Path 31" d="M80.456,48.866H78.882V45.209a7.645,7.645,0,0,0-.087-1.463,1,1,0,0,0-.33-.561.843.843,0,0,0-.546-.195,1.131,1.131,0,0,0-.716.252,1.341,1.341,0,0,0-.448.7,7.032,7.032,0,0,0-.13,1.68v3.245H75.052V41.711h1.455v1.045a2.862,2.862,0,0,1,.875-.911,2,2,0,0,1,1.079-.3,1.885,1.885,0,0,1,1.161.355,1.813,1.813,0,0,1,.654.909,5.522,5.522,0,0,1,.18,1.609Z" transform="translate(58.97 32.639)" fill="#92abd6"/>
        <path id="Path_32" data-name="Path 32" d="M80.378,46.83l1.573-.289a1.191,1.191,0,0,0,1.264,1.125,1.365,1.365,0,0,0,.845-.216.674.674,0,0,0,.279-.559.541.541,0,0,0-.121-.371,1.159,1.159,0,0,0-.512-.236,7,7,0,0,1-2.455-.968,1.985,1.985,0,0,1-.654-1.573,2.1,2.1,0,0,1,.639-1.6,2.621,2.621,0,0,1,1.859-.6,2.954,2.954,0,0,1,1.77.448,2.437,2.437,0,0,1,.85,1.445l-1.477.33a1.026,1.026,0,0,0-1.116-.862,1.523,1.523,0,0,0-.823.166.5.5,0,0,0-.245.429.464.464,0,0,0,.223.391,6.257,6.257,0,0,0,1.395.491,3.836,3.836,0,0,1,1.784.886,2,2,0,0,1,.463,1.382,2.244,2.244,0,0,1-.718,1.713,2.78,2.78,0,0,1-1.984.675,2.979,2.979,0,0,1-1.877-.562,2.7,2.7,0,0,1-.961-1.641" transform="translate(63.154 32.639)" fill="#92abd6"/>
        <path id="Path_33" data-name="Path 33" d="M89.868,48.791v-1.07a2.454,2.454,0,0,1-.855.909,2.069,2.069,0,0,1-1.107.329,1.861,1.861,0,0,1-1.046-.3,1.827,1.827,0,0,1-.691-.864,4.5,4.5,0,0,1-.227-1.625V41.636h1.571v3.287a13.326,13.326,0,0,0,.071,1.789.99.99,0,0,0,.316.589.875.875,0,0,0,.589.209,1.121,1.121,0,0,0,.727-.273,1.265,1.265,0,0,0,.437-.7,10.222,10.222,0,0,0,.105-1.884V41.636H91.33v7.155Z" transform="translate(67.525 32.714)" fill="#92abd6"/>
        <path id="Path_34" data-name="Path 34" d="M93.126,48.866H91.553V41.711H93.01v1.016a3.17,3.17,0,0,1,.67-.95,1.072,1.072,0,0,1,.686-.236,1.724,1.724,0,0,1,1.027.357L94.9,43.55a1.206,1.206,0,0,0-.736-.311.807.807,0,0,0-.575.239,1.586,1.586,0,0,0-.357.868,15.9,15.9,0,0,0-.109,2.307Z" transform="translate(71.935 32.639)" fill="#92abd6"/>
        <path id="Path_35" data-name="Path 35" d="M99.44,46.595l1.559.318a3.061,3.061,0,0,1-.973,1.6,2.515,2.515,0,0,1-1.609.521,2.478,2.478,0,0,1-2.03-.87,4.3,4.3,0,0,1-.845-2.836,4.523,4.523,0,0,1,.85-2.875,2.273,2.273,0,0,1,1.864-.912,2.382,2.382,0,0,1,1.995.932,5.051,5.051,0,0,1,.83,3.145l-.007.216H97.147a2.129,2.129,0,0,0,.386,1.32,1.117,1.117,0,0,0,.9.466q.758,0,1.009-1.025m.082-1.92a2.075,2.075,0,0,0-.361-1.263,1,1,0,0,0-1.646.018,1.958,1.958,0,0,0-.341,1.245Z" transform="translate(75.069 32.639)" fill="#92abd6"/>
        <path id="Path_36" data-name="Path 36" d="M106.986,49.989V45.83l-2.995-5.72h1.934l1.921,3.907,1.9-3.907h1.9l-3.009,5.734v4.145Z" transform="translate(81.708 31.516)" fill="#92abd6"/>
        <path id="Path_37" data-name="Path 37" d="M109.772,45.186a4.291,4.291,0,0,1,.421-1.916,3.075,3.075,0,0,1,1.1-1.3,2.8,2.8,0,0,1,1.532-.432,2.636,2.636,0,0,1,2.246,1.111,4.269,4.269,0,0,1,.816,2.595,4.593,4.593,0,0,1-.425,2,3.182,3.182,0,0,1-1.116,1.341,2.733,2.733,0,0,1-1.514.448,2.784,2.784,0,0,1-2.191-1,4.19,4.19,0,0,1-.871-2.848m1.605.1a2.664,2.664,0,0,0,.43,1.646,1.274,1.274,0,0,0,1.037.557,1.246,1.246,0,0,0,1.016-.561,2.742,2.742,0,0,0,.423-1.657,2.649,2.649,0,0,0-.43-1.629,1.271,1.271,0,0,0-1.03-.561,1.253,1.253,0,0,0-1.02.561,2.687,2.687,0,0,0-.427,1.643" transform="translate(86.25 32.639)" fill="#92abd6"/>
        <path id="Path_38" data-name="Path 38" d="M119.509,48.791v-1.07a2.454,2.454,0,0,1-.855.909,2.068,2.068,0,0,1-1.107.329,1.861,1.861,0,0,1-1.046-.3,1.827,1.827,0,0,1-.691-.864,4.5,4.5,0,0,1-.227-1.625V41.636h1.571v3.287a13.323,13.323,0,0,0,.071,1.789.99.99,0,0,0,.316.589.875.875,0,0,0,.589.209,1.121,1.121,0,0,0,.727-.273,1.265,1.265,0,0,0,.438-.7,10.226,10.226,0,0,0,.105-1.884V41.636h1.573v7.155Z" transform="translate(90.815 32.714)" fill="#92abd6"/>
        <path id="Path_39" data-name="Path 39" d="M122.767,48.866h-1.573V41.711h1.457v1.016a3.17,3.17,0,0,1,.67-.95,1.073,1.073,0,0,1,.686-.236,1.724,1.724,0,0,1,1.027.357l-.489,1.652a1.205,1.205,0,0,0-.736-.311.807.807,0,0,0-.575.239,1.586,1.586,0,0,0-.357.868,15.9,15.9,0,0,0-.109,2.307Z" transform="translate(95.224 32.639)" fill="#92abd6"/>
        <path id="Path_40" data-name="Path 40" d="M134.3,46.431l1.6.612a4.436,4.436,0,0,1-1.246,2.423,3.135,3.135,0,0,1-2.143.764,3.187,3.187,0,0,1-2.593-1.22,5.852,5.852,0,0,1-1.143-3.8,6.138,6.138,0,0,1,1.15-3.955,3.279,3.279,0,0,1,2.691-1.239,3.115,3.115,0,0,1,2.3.929,4.013,4.013,0,0,1,.968,1.963l-1.632.471a2.188,2.188,0,0,0-.625-1.23,1.574,1.574,0,0,0-1.1-.429,1.758,1.758,0,0,0-1.48.782,4.463,4.463,0,0,0-.573,2.58,4.739,4.739,0,0,0,.559,2.655,1.706,1.706,0,0,0,1.45.789,1.5,1.5,0,0,0,1.129-.5,3.159,3.159,0,0,0,.688-1.593" transform="translate(101.184 31.442)" fill="#92abd6"/>
        <path id="Path_41" data-name="Path 41" d="M135.066,45.186a4.291,4.291,0,0,1,.421-1.916,3.075,3.075,0,0,1,1.1-1.3,2.806,2.806,0,0,1,1.532-.432,2.636,2.636,0,0,1,2.246,1.111,4.269,4.269,0,0,1,.816,2.595,4.593,4.593,0,0,1-.425,2,3.182,3.182,0,0,1-1.116,1.341,2.733,2.733,0,0,1-1.514.448,2.784,2.784,0,0,1-2.191-1,4.19,4.19,0,0,1-.871-2.848m1.605.1a2.664,2.664,0,0,0,.43,1.646,1.274,1.274,0,0,0,1.038.557,1.247,1.247,0,0,0,1.016-.561,2.742,2.742,0,0,0,.423-1.657,2.65,2.65,0,0,0-.43-1.629,1.271,1.271,0,0,0-1.03-.561,1.253,1.253,0,0,0-1.02.561,2.687,2.687,0,0,0-.427,1.643" transform="translate(106.123 32.639)" fill="#92abd6"/>
        <path id="Path_42" data-name="Path 42" d="M146.3,48.866h-1.573V45.209a7.648,7.648,0,0,0-.087-1.463,1,1,0,0,0-.33-.561.845.845,0,0,0-.548-.195,1.126,1.126,0,0,0-.714.252,1.341,1.341,0,0,0-.448.7,7.032,7.032,0,0,0-.13,1.68v3.245h-1.571V41.711h1.455v1.045a2.862,2.862,0,0,1,.875-.911,2,2,0,0,1,1.079-.3,1.885,1.885,0,0,1,1.161.355,1.813,1.813,0,0,1,.654.909,5.522,5.522,0,0,1,.18,1.609Z" transform="translate(110.701 32.639)" fill="#92abd6"/>
        <path id="Path_43" data-name="Path 43" d="M151.923,48.866h-1.573V45.209a7.645,7.645,0,0,0-.087-1.463,1,1,0,0,0-.33-.561.843.843,0,0,0-.546-.195,1.13,1.13,0,0,0-.716.252,1.341,1.341,0,0,0-.448.7,7.032,7.032,0,0,0-.13,1.68v3.245h-1.571V41.711h1.455v1.045a2.862,2.862,0,0,1,.875-.911,2,2,0,0,1,1.079-.3,1.885,1.885,0,0,1,1.161.355,1.8,1.8,0,0,1,.654.909,5.522,5.522,0,0,1,.18,1.609Z" transform="translate(115.122 32.639)" fill="#92abd6"/>
        <path id="Path_44" data-name="Path 44" d="M155.8,46.595l1.559.318a3.061,3.061,0,0,1-.973,1.6,2.518,2.518,0,0,1-1.609.521,2.478,2.478,0,0,1-2.03-.87,4.3,4.3,0,0,1-.845-2.836,4.512,4.512,0,0,1,.85-2.875,2.273,2.273,0,0,1,1.864-.912,2.382,2.382,0,0,1,1.995.932,5.051,5.051,0,0,1,.83,3.145l-.007.216H153.5a2.129,2.129,0,0,0,.386,1.32,1.117,1.117,0,0,0,.9.466q.758,0,1.009-1.025m.082-1.92a2.075,2.075,0,0,0-.361-1.263,1,1,0,0,0-1.646.018,1.958,1.958,0,0,0-.341,1.245Z" transform="translate(119.349 32.639)" fill="#92abd6"/>
        <path id="Path_45" data-name="Path 45" d="M162.756,43.818l-1.545.337q-.171-1.128-1.075-1.127a1.108,1.108,0,0,0-.937.487,2.863,2.863,0,0,0-.355,1.643,3.386,3.386,0,0,0,.354,1.8,1.094,1.094,0,0,0,.95.527.961.961,0,0,0,.73-.3,2.005,2.005,0,0,0,.409-1.061l1.545.318q-.477,2.588-2.743,2.588a2.376,2.376,0,0,1-2.15-1.095,4.771,4.771,0,0,1-.7-2.632,4.306,4.306,0,0,1,.795-2.805,2.814,2.814,0,0,1,3.782-.416,3.134,3.134,0,0,1,.943,1.732" transform="translate(123.543 32.639)" fill="#92abd6"/>
        <path id="Path_46" data-name="Path 46" d="M165.7,42.747v1.509h-1.068v2.889a6.485,6.485,0,0,0,.046,1.086.376.376,0,0,0,.389.27,1.727,1.727,0,0,0,.625-.18l.136,1.468a2.622,2.622,0,0,1-1.232.284,1.509,1.509,0,0,1-.959-.284,1.392,1.392,0,0,1-.482-.816,8.228,8.228,0,0,1-.1-1.593V44.256h-.721V42.747h.721V41.325l1.573-1.105v2.527Z" transform="translate(127.554 31.601)" fill="#92abd6"/>
        <path id="Path_47" data-name="Path 47" d="M166.555,40.111h1.573v1.752h-1.573Zm0,2.721h1.573v7.155h-1.573Z" transform="translate(130.865 31.516)" fill="#92abd6"/>
        <path id="Path_48" data-name="Path 48" d="M172.027,48.791l-2.4-7.155h1.641l1.12,3.652.325,1.22.332-1.22,1.136-3.652h1.605l-2.363,7.155Z" transform="translate(133.277 32.714)" fill="#92abd6"/>
        <path id="Path_49" data-name="Path 49" d="M175.329,40.111H176.9v1.752h-1.573Zm0,2.721H176.9v7.155h-1.573Z" transform="translate(137.759 31.516)" fill="#92abd6"/>
        <path id="Path_50" data-name="Path 50" d="M181.822,42.747v1.509h-1.068v2.889a6.489,6.489,0,0,0,.046,1.086.376.376,0,0,0,.389.27,1.727,1.727,0,0,0,.625-.18l.136,1.468a2.62,2.62,0,0,1-1.23.284,1.511,1.511,0,0,1-.961-.284,1.392,1.392,0,0,1-.482-.816,8.228,8.228,0,0,1-.1-1.593V44.256h-.721V42.747h.721V41.325l1.573-1.105v2.527Z" transform="translate(140.219 31.601)" fill="#92abd6"/>
        <path id="Path_51" data-name="Path 51" d="M182.254,41.635h1.675l1.411,5.082,1.386-5.082h1.627l-2.091,6.886-.4,1.341a4.288,4.288,0,0,1-.529,1.105,1.73,1.73,0,0,1-.668.539,2.37,2.37,0,0,1-1,.189,3.469,3.469,0,0,1-.893-.116l-.138-1.482a2.867,2.867,0,0,0,.663.088.99.99,0,0,0,.738-.295,2.347,2.347,0,0,0,.475-1.077Z" transform="translate(143.2 32.713)" fill="#92abd6"/>
      </g>
    </g>
  </g>
</svg>
